<svg width="21" height="24" viewBox="0 0 21 24" fill="none" xmlns="http://www.w3.org/2000/svg">
<path fill-rule="evenodd" clip-rule="evenodd" d="M6.11133 10.1675C6.11133 7.927 7.927 6.11133 10.1675 6.11133C12.407 6.11133 14.2224 7.92726 14.2224 10.1675C14.2224 12.4068 12.4068 14.2224 10.1675 14.2224C7.92726 14.2224 6.11133 12.407 6.11133 10.1675ZM10.1675 8.11133C9.03157 8.11133 8.11133 9.03157 8.11133 10.1675C8.11133 11.3019 9.0313 12.2224 10.1675 12.2224C11.3022 12.2224 12.2224 11.3022 12.2224 10.1675C12.2224 9.0313 11.3019 8.11133 10.1675 8.11133Z" fill="white"/>
<path fill-rule="evenodd" clip-rule="evenodd" d="M10.1661 2C5.66346 2 2 5.68342 2 10.244C2 13.1387 3.73163 16.0953 5.78141 18.4032C6.79143 19.5404 7.84048 20.4762 8.7106 21.1199C9.14677 21.4425 9.52297 21.6806 9.81467 21.833C10.0056 21.9327 10.1182 21.9731 10.1661 21.9894C10.214 21.9731 10.3266 21.9327 10.5176 21.833C10.8093 21.6806 11.1855 21.4425 11.6218 21.1199C12.492 20.4762 13.5412 19.5403 14.5514 18.4031C16.6015 16.0952 18.3333 13.1386 18.3333 10.244C18.3333 5.68359 14.6688 2 10.1661 2ZM0 10.244C0 4.59502 4.54279 0 10.1661 0C15.7892 0 20.3333 4.59485 20.3333 10.244C20.3333 13.8701 18.214 17.2915 16.0466 19.7314C14.9481 20.9681 13.797 21.9986 12.8111 22.7278C12.3192 23.0916 11.8534 23.3916 11.4435 23.6057C11.0822 23.7944 10.6127 24 10.1661 24C9.71944 24 9.24993 23.7944 8.88865 23.6057C8.4788 23.3916 8.01302 23.0916 7.52121 22.7278C6.53537 21.9986 5.38446 20.968 4.28605 19.7313C2.119 17.2914 0 13.87 0 10.244Z" fill="white"/>
</svg>
