<svg width="39" height="41" viewBox="0 0 39 41" fill="none" xmlns="http://www.w3.org/2000/svg">
<path fill-rule="evenodd" clip-rule="evenodd" d="M3.84412 5.32136C3.7741 5.40562 3.69292 5.48904 3.63819 5.54528C3.63313 5.55048 3.62829 5.55545 3.62371 5.56016L3.61532 5.5688C3.53349 5.65305 3.44724 5.74185 3.35223 5.84727C3.15847 6.06224 2.93409 6.34046 2.72417 6.699C2.31158 7.40369 1.9215 8.47433 2.01364 10.0643C2.20096 13.2969 4.39314 18.798 12.7954 27.652C21.2067 36.5155 26.4055 38.794 29.4175 38.9862C30.8891 39.0801 31.8776 38.6797 32.5336 38.2524C32.8689 38.0339 33.1308 37.7994 33.3349 37.5948C33.4346 37.4948 33.5186 37.4041 33.5984 37.3179L33.6072 37.3084C33.6117 37.3036 33.6164 37.2985 33.6214 37.2931C33.6744 37.2358 33.7535 37.1501 33.8341 37.0757C35.3073 35.5203 36.1754 34.3618 36.6225 33.4401C37.0531 32.5524 37.0698 31.9376 36.8981 31.3904C36.7059 30.7784 36.2394 30.1203 35.4212 29.2359C35.0198 28.8021 34.5591 28.3394 34.0366 27.8156L34.0078 27.7868C33.497 27.2747 32.9341 26.7103 32.3395 26.0836M3.84412 5.32136C5.32601 3.76222 6.42349 2.85015 7.28838 2.3838C8.11277 1.93929 8.65293 1.93497 9.1251 2.10046C9.68092 2.29528 10.2955 2.77624 11.1389 3.64541C11.5502 4.06928 11.9887 4.55547 12.4857 5.1068L12.4937 5.11576C12.9846 5.66035 13.5264 6.26133 14.1292 6.89655C15.2232 8.04937 15.4498 8.89759 15.4324 9.61631C15.4229 10.0102 15.3383 10.4191 15.2012 10.8889C15.1327 11.1236 15.0543 11.3631 14.9687 11.6218C14.9601 11.6477 14.9514 11.6739 14.9427 11.7002C14.866 11.9318 14.7842 12.1786 14.7069 12.4308C14.3569 13.5732 14.0634 14.9352 14.4491 16.5914C14.8307 18.2297 15.8469 20.0338 17.8628 22.158C19.8749 24.2784 21.5972 25.3628 23.1817 25.772C24.7921 26.1879 26.116 25.8676 27.2078 25.4948C27.4485 25.4126 27.684 25.3256 27.9035 25.2446C27.9284 25.2353 27.9532 25.2262 27.9777 25.2172C28.2231 25.1266 28.4482 25.0445 28.6683 24.9729C29.1094 24.8294 29.4827 24.7445 29.8363 24.7346C30.4623 24.7173 31.2424 24.9281 32.3395 26.0836M13.9734 3.77013C14.4674 4.3182 14.9948 4.90326 15.5799 5.51983C16.9589 6.973 17.4645 8.31222 17.4318 9.66461C17.4163 10.3062 17.2803 10.9038 17.1211 11.4492C17.0415 11.7221 16.9528 11.9923 16.8674 12.2503C16.8587 12.2764 16.8501 12.3024 16.8415 12.3283C16.7639 12.5627 16.6893 12.7876 16.6192 13.0167C16.3133 14.0149 16.1272 14.9793 16.397 16.1377C16.6709 17.3139 17.4452 18.8125 19.3135 20.7813C21.1854 22.7538 22.5965 23.5553 23.6818 23.8355C24.7412 24.1091 25.6236 23.9223 26.5616 23.6021C26.7775 23.5283 26.9896 23.45 27.2124 23.3678C27.2366 23.3588 27.261 23.3498 27.2855 23.3408C27.5301 23.2505 27.7883 23.1561 28.0495 23.0711C28.5711 22.9014 29.1522 22.7529 29.7807 22.7354C31.119 22.6982 32.414 23.2574 33.7899 24.7066C34.3673 25.3151 34.9154 25.8646 35.4292 26.3797L35.4526 26.4032C35.9691 26.921 36.4576 27.4111 36.8893 27.8777C37.7373 28.7943 38.4724 29.7279 38.8062 30.7914C39.1605 31.9198 39.0276 33.0643 38.4219 34.313C37.8355 35.5219 36.7885 36.8679 35.2576 38.4812C35.2326 38.5075 35.2062 38.5324 35.1786 38.5559C35.183 38.5521 35.1826 38.5525 35.1724 38.5632C35.1594 38.5768 35.1302 38.6073 35.0745 38.6675C34.9952 38.7532 34.8843 38.8735 34.7508 39.0073C34.4811 39.2776 34.1111 39.6117 33.6252 39.9282C32.6389 40.5707 31.2273 41.1057 29.2901 40.9821C25.4846 40.7393 19.8307 37.971 11.3447 29.0287C2.84747 20.0747 0.246193 14.1354 0.0169864 10.18C-0.0991427 8.17596 0.396753 6.71579 0.998238 5.68848C1.29535 5.18102 1.61004 4.79293 1.86661 4.50827C1.98716 4.37451 2.09616 4.26232 2.17653 4.17959C2.18075 4.17524 2.1849 4.17097 2.18896 4.16679C2.24853 4.10545 2.27758 4.07454 2.28998 4.06134C2.29864 4.05212 2.29919 4.05154 2.29635 4.05526C2.31806 4.0268 2.34129 3.99952 2.36593 3.97355C3.89831 2.35823 5.18106 1.24786 6.33917 0.623401C7.54307 -0.0257408 8.67111 -0.177958 9.78665 0.213042C10.8186 0.574727 11.7112 1.3633 12.5742 2.25264C13.0151 2.707 13.4784 3.22102 13.9679 3.76407L13.9734 3.77013Z" fill="white"/>
</svg>
