<svg width="25" height="25" viewBox="0 0 25 25" fill="none" xmlns="http://www.w3.org/2000/svg">
<path fill-rule="evenodd" clip-rule="evenodd" d="M3.03197 3.84206C2.97843 3.902 2.92256 3.95631 2.89313 3.98492C2.88964 3.98831 2.88652 3.99134 2.88382 3.99398L2.87994 3.99777C2.82833 4.04818 2.77932 4.09606 2.72544 4.15277C2.61771 4.26617 2.49763 4.40801 2.38634 4.58835C2.17211 4.93548 1.95634 5.47864 2.00766 6.31895C2.11399 8.05973 3.37987 11.2097 8.58838 16.4168C13.7963 21.6232 16.9457 22.8873 18.6858 22.9927C19.5257 23.0435 20.0686 22.8275 20.4155 22.613C20.5958 22.5016 20.7376 22.3814 20.851 22.2736C20.9076 22.2198 20.9553 22.1709 21.0056 22.1194L21.0099 22.115C21.0125 22.1123 21.0155 22.1092 21.0189 22.1058C21.0475 22.0763 21.102 22.0203 21.1621 21.9666C22.0652 21.0611 22.5657 20.4166 22.8126 19.9337C23.04 19.489 23.0211 19.2489 22.9587 19.0603C22.872 18.7983 22.6422 18.4676 22.1373 17.9498C21.894 17.7003 21.6132 17.4327 21.2872 17.1226L21.2681 17.1045C20.9512 16.8031 20.5984 16.4674 20.2252 16.0944M3.03197 3.84206C3.9401 2.93645 4.5859 2.4348 5.06939 2.18747C5.51443 1.95981 5.75354 1.97928 5.94082 2.04155C6.20212 2.12844 6.53196 2.35858 7.04956 2.86465C7.29902 3.10854 7.56633 3.38963 7.87651 3.71609L7.88267 3.72257C8.18724 4.04314 8.52694 4.40067 8.90527 4.7789C9.52869 5.40214 9.60027 5.79556 9.59327 6.07039C9.58882 6.24528 9.54879 6.44304 9.46873 6.70327C9.42878 6.83312 9.3825 6.96748 9.32921 7.12018C9.3239 7.13539 9.31852 7.15081 9.31307 7.16641C9.26556 7.30241 9.21296 7.45295 9.16326 7.60685C8.93533 8.31259 8.72655 9.20806 8.99454 10.2998C9.25727 11.37 9.94477 12.4982 11.2262 13.7792C12.5075 15.0602 13.6358 15.7474 14.7061 16.0096C15.7979 16.2771 16.6932 16.0676 17.3987 15.8391C17.5525 15.7892 17.7031 15.7365 17.839 15.6888C17.8546 15.6834 17.87 15.678 17.8851 15.6727C18.0378 15.6193 18.1721 15.5728 18.3019 15.5328C18.562 15.4525 18.7596 15.4123 18.9344 15.4077C19.2088 15.4005 19.6019 15.4715 20.2251 16.0943M9.32656 2.33864C9.63433 2.66257 9.9592 3.0045 10.3193 3.36449C11.2332 4.27811 11.6167 5.17472 11.5926 6.12131C11.5815 6.55714 11.4844 6.95294 11.3803 7.29139C11.3282 7.46088 11.2706 7.62714 11.2175 7.77913C11.2122 7.79451 11.2069 7.80974 11.2016 7.82485C11.153 7.96384 11.1084 8.09158 11.0665 8.22151C10.8867 8.77819 10.7974 9.25476 10.9369 9.82294C11.0816 10.4126 11.5071 11.2321 12.6402 12.3648C13.7733 13.4976 14.5927 13.9227 15.182 14.067C15.7499 14.2062 16.226 14.1166 16.7823 13.9364C16.9123 13.8943 17.04 13.8496 17.179 13.8009C17.194 13.7956 17.2092 13.7903 17.2244 13.785C17.3763 13.7318 17.5425 13.6741 17.7119 13.6218C18.0502 13.5173 18.4459 13.4199 18.8816 13.4084C19.8282 13.3834 20.725 13.7664 21.639 14.6797L21.6391 14.6799C21.9946 15.0352 22.3322 15.3563 22.6522 15.6608L22.6656 15.6735C22.9854 15.9777 23.2947 16.272 23.5692 16.5535C24.1 17.0978 24.6172 17.7058 24.8575 18.432C25.122 19.2315 25.0102 20.029 24.5934 20.8442C24.1984 21.6167 23.5104 22.447 22.5514 23.4057C22.5323 23.4248 22.5126 23.443 22.4921 23.4604C22.4885 23.4641 22.4736 23.4787 22.4409 23.5122L22.4325 23.5208C22.3839 23.5706 22.3134 23.6429 22.2292 23.7229C22.0481 23.8951 21.7972 24.1103 21.467 24.3143C20.793 24.7309 19.844 25.0665 18.5649 24.989C16.067 24.8378 12.4702 23.1256 7.17436 17.8312C1.87782 12.5361 0.163977 8.93914 0.0113822 6.44088C-0.066753 5.16166 0.268211 4.2123 0.684357 3.53799C0.888248 3.20761 1.10327 2.9565 1.27546 2.77525C1.35567 2.69082 1.4281 2.6201 1.47798 2.57139C1.48081 2.56863 1.48356 2.56595 1.48623 2.56333C1.51998 2.53037 1.53464 2.51543 1.53822 2.51196C1.55565 2.49146 1.57391 2.47166 1.59294 2.45263C2.55408 1.49142 3.3856 0.802319 4.15855 0.406915C4.97434 -0.0103992 5.77222 -0.122186 6.5719 0.143728C7.29756 0.38503 7.90465 0.903595 8.44775 1.43459C8.72704 1.70765 9.01927 2.01522 9.3212 2.333L9.32642 2.3385L9.32656 2.33864Z" fill="white"/>
</svg>
