<svg width="46" height="37" viewBox="0 0 46 37" fill="none" xmlns="http://www.w3.org/2000/svg">
<path fill-rule="evenodd" clip-rule="evenodd" d="M45.655 0.244415C45.9215 0.475412 46.0466 0.829682 45.9843 1.17678L39.6985 36.1768C39.64 36.5027 39.424 36.7784 39.1216 36.9133C38.8192 37.0482 38.4697 37.0246 38.1882 36.8504L19.331 25.1838C19.0822 25.0298 18.9133 24.7746 18.8688 24.4854C18.8243 24.1962 18.9087 23.902 19.0997 23.6804L27.4272 14.0202L14.0976 22.2671C13.8115 22.4441 13.4557 22.4654 13.1505 22.3238L0.5791 16.4905C0.207103 16.3178 -0.0218003 15.9356 0.0016448 15.5262C0.0250899 15.1168 0.29613 14.7631 0.6854 14.6341L44.6854 0.0507948C45.0201 -0.0601524 45.3886 0.0134172 45.655 0.244415ZM3.71029 15.7386L13.5035 20.2828L31.9024 8.89961C32.3222 8.63993 32.8686 8.72532 33.1891 9.10069C33.5096 9.47605 33.5083 10.0291 33.186 10.4029L21.3793 24.0992L37.99 34.376L43.7185 2.47824L3.71029 15.7386Z" fill="white"/>
</svg>
